<?xml version="1.0" encoding="UTF-8" standalone="no"?>
<!DOCTYPE svg PUBLIC "-//W3C//DTD SVG 1.1//EN" "http://www.w3.org/Graphics/SVG/1.1/DTD/svg11.dtd">
<svg width="100%" height="100%" viewBox="0 0 2481 3508" version="1.1" xmlns="http://www.w3.org/2000/svg" xmlns:xlink="http://www.w3.org/1999/xlink" xml:space="preserve" style="fill-rule:evenodd;clip-rule:evenodd;stroke-linecap:round;stroke-linejoin:round;stroke-miterlimit:1.5;">
    <g transform="matrix(0.870275,0,0,0.870275,8.30973,513.788)">
        <path d="M741.483,1312.77C741.483,1291.62 738.094,1271.82 731.315,1253.38C724.536,1234.94 714.909,1218.94 702.435,1205.38C689.962,1191.83 674.912,1181.12 657.286,1173.25C639.66,1165.39 619.729,1161.45 597.494,1161.45C575.258,1161.45 554.92,1165.39 536.481,1173.25C518.042,1181.12 502.043,1191.83 488.484,1205.38C474.926,1218.94 464.351,1234.94 456.758,1253.38C449.165,1271.82 445.369,1291.62 445.369,1312.77C445.369,1333.92 449.165,1353.71 456.758,1372.15C464.351,1390.59 474.926,1406.59 488.484,1420.15C502.043,1433.71 518.042,1444.42 536.481,1452.28C554.92,1460.15 575.258,1464.08 597.494,1464.08C619.729,1464.08 639.66,1460.15 657.286,1452.28C674.912,1444.42 689.962,1433.71 702.435,1420.15C714.909,1406.59 724.536,1390.59 731.315,1372.15C738.094,1353.71 741.483,1333.92 741.483,1312.77ZM394.118,1122.41L447.809,1122.41L447.809,1185.86L449.436,1185.86C458.114,1172.84 468.418,1161.73 480.349,1152.51C492.281,1143.29 504.754,1135.69 517.77,1129.73C530.787,1123.76 544.209,1119.42 558.039,1116.71C571.868,1114 585.02,1112.64 597.494,1112.64C627.322,1112.64 654.574,1117.66 679.251,1127.69C703.927,1137.73 725.213,1151.69 743.11,1169.59C761.008,1187.49 774.973,1208.64 785.006,1233.04C795.039,1257.45 800.056,1284.02 800.056,1312.77C800.056,1341.51 795.039,1368.08 785.006,1392.49C774.973,1416.89 761.008,1438.05 743.11,1455.94C725.213,1473.84 703.927,1487.81 679.251,1497.84C654.574,1507.87 627.322,1512.89 597.494,1512.89C585.02,1512.89 571.868,1511.53 558.039,1508.82C544.209,1506.11 530.787,1501.77 517.77,1495.8C504.754,1489.84 492.281,1482.25 480.349,1473.03C468.418,1463.81 458.114,1452.69 449.436,1439.67L447.809,1439.67L447.809,1737.41L394.118,1737.41L394.118,1122.41Z" style="fill-rule:nonzero;"/>
        <path d="M1187.28,1283.48C1187.28,1247.14 1176.44,1217.72 1154.74,1195.21C1133.05,1172.71 1102.68,1161.45 1063.63,1161.45C1046.28,1161.45 1029.46,1164.84 1013.19,1171.62C996.923,1178.4 982.687,1187.49 970.484,1198.88C958.282,1210.27 948.52,1223.28 941.198,1237.92C933.877,1252.57 930.216,1267.75 930.216,1283.48L1187.28,1283.48ZM928.589,1327.41C930.216,1346.39 934.826,1364.29 942.418,1381.1C950.011,1397.91 960.044,1412.42 972.518,1424.62C984.992,1436.83 999.364,1446.45 1015.63,1453.5C1031.9,1460.55 1049.53,1464.08 1068.51,1464.08C1097.26,1464.08 1122.07,1457.43 1142.95,1444.15C1163.83,1430.86 1179.69,1415.54 1190.54,1398.18L1232.03,1432.35C1209.25,1461.1 1184.16,1481.7 1156.78,1494.18C1129.39,1506.65 1099.97,1512.89 1068.51,1512.89C1040.31,1512.89 1014.14,1507.87 990.008,1497.84C965.874,1487.81 945.13,1473.84 927.775,1455.94C910.421,1438.05 896.727,1416.89 886.694,1392.49C876.66,1368.08 871.644,1341.51 871.644,1312.77C871.644,1284.02 876.525,1257.45 886.287,1233.04C896.049,1208.64 909.607,1187.49 926.962,1169.59C944.317,1151.69 964.654,1137.73 987.975,1127.69C1011.3,1117.66 1036.51,1112.64 1063.63,1112.64C1092.37,1112.64 1118.13,1117.8 1140.91,1128.1C1163.69,1138.41 1182.81,1152.1 1198.27,1169.18C1213.72,1186.27 1225.52,1206.33 1233.65,1229.38C1241.79,1252.43 1245.86,1276.97 1245.86,1303L1245.86,1327.41L928.589,1327.41Z" style="fill-rule:nonzero;"/>
        <path d="M1545.22,1212.71C1537.09,1196.98 1526.24,1184.5 1512.68,1175.28C1499.12,1166.07 1482.58,1161.45 1463.06,1161.45C1453.84,1161.45 1444.49,1162.54 1434.99,1164.71C1425.5,1166.88 1416.96,1170.27 1409.37,1174.88C1401.78,1179.49 1395.67,1185.32 1391.07,1192.37C1386.45,1199.42 1384.15,1208.1 1384.15,1218.4C1384.15,1236.3 1390.39,1249.31 1402.86,1257.45C1415.33,1265.58 1434.05,1272.63 1458.99,1278.6L1513.5,1291.62C1540.07,1297.58 1562.17,1309.65 1579.8,1327.82C1597.42,1345.98 1606.24,1368.63 1606.24,1395.74C1606.24,1416.35 1602.03,1434.11 1593.63,1449.03C1585.22,1463.94 1574.1,1476.14 1560.27,1485.63C1546.44,1495.13 1530.58,1502.04 1512.68,1506.38C1494.79,1510.72 1476.62,1512.89 1458.18,1512.89C1428.89,1512.89 1401.64,1507.33 1376.42,1496.21C1351.2,1485.09 1329.64,1465.98 1311.75,1438.86L1358.12,1407.13C1368.96,1424.49 1382.66,1438.32 1399.2,1448.62C1415.74,1458.92 1435.4,1464.08 1458.18,1464.08C1469.03,1464.08 1479.87,1462.86 1490.72,1460.42C1501.57,1457.98 1511.19,1454.18 1519.6,1449.03C1528,1443.88 1534.78,1437.23 1539.93,1429.1C1545.09,1420.96 1547.66,1411.47 1547.66,1400.62C1547.66,1381.64 1540.61,1367.95 1526.51,1359.54C1512.41,1351.14 1495.33,1344.49 1475.26,1339.61L1423.2,1327.41C1416.69,1325.78 1407.88,1323.07 1396.76,1319.27C1385.64,1315.48 1374.8,1309.78 1364.22,1302.19C1353.64,1294.6 1344.56,1284.7 1336.97,1272.5C1329.37,1260.3 1325.58,1245.25 1325.58,1227.35C1325.58,1207.82 1329.51,1190.74 1337.37,1176.1C1345.24,1161.45 1355.81,1149.52 1369.1,1140.3C1382.39,1131.08 1397.44,1124.17 1414.25,1119.56C1431.06,1114.95 1448.42,1112.64 1466.31,1112.64C1492.89,1112.64 1517.56,1117.8 1540.34,1128.1C1563.12,1138.41 1580.75,1156.03 1593.22,1180.98L1545.22,1212.71Z" style="fill-rule:nonzero;"/>
        <path d="M1967.43,1211.89C1958.21,1197.79 1945.33,1185.86 1928.79,1176.1C1912.25,1166.34 1893.4,1161.45 1872.25,1161.45C1850.02,1160.91 1830.08,1164.44 1812.46,1172.03C1794.83,1179.62 1779.78,1190.2 1767.31,1203.76C1754.84,1217.32 1745.35,1233.45 1738.84,1252.16C1732.33,1270.87 1729.08,1291.07 1729.08,1312.77C1729.08,1334.46 1732.33,1354.66 1738.84,1373.37C1745.35,1392.08 1754.84,1408.22 1767.31,1421.78C1779.78,1435.33 1794.83,1445.91 1812.46,1453.5C1830.08,1461.1 1850.02,1464.62 1872.25,1464.08C1893.4,1464.08 1912.25,1459.2 1928.79,1449.43C1945.33,1439.67 1958.21,1427.74 1967.43,1413.64L2011.36,1446.99C1992.38,1469.23 1970.96,1485.63 1947.09,1496.21C1923.23,1506.79 1898.28,1512.35 1872.25,1512.89C1841.34,1513.43 1813.41,1508.68 1788.46,1498.65C1763.51,1488.62 1742.23,1474.65 1724.6,1456.76C1706.98,1438.86 1693.55,1417.57 1684.33,1392.9C1675.11,1368.22 1670.5,1341.51 1670.5,1312.77C1670.5,1284.02 1675.11,1257.31 1684.33,1232.64C1693.55,1207.96 1706.98,1186.67 1724.6,1168.78C1742.23,1150.88 1763.51,1136.91 1788.46,1126.88C1813.41,1116.85 1841.34,1112.1 1872.25,1112.64C1898.28,1113.19 1923.23,1118.75 1947.09,1129.32C1970.96,1139.9 1992.38,1156.3 2011.36,1178.54L1967.43,1211.89Z" style="fill-rule:nonzero;"/>
        <path d="M2378.25,1283.48C2378.25,1247.14 2367.4,1217.72 2345.71,1195.21C2324.02,1172.71 2293.64,1161.45 2254.6,1161.45C2237.24,1161.45 2220.43,1164.84 2204.16,1171.62C2187.89,1178.4 2173.65,1187.49 2161.45,1198.88C2149.25,1210.27 2139.49,1223.28 2132.16,1237.92C2124.84,1252.57 2121.18,1267.75 2121.18,1283.48L2378.25,1283.48ZM2119.56,1327.41C2121.18,1346.39 2125.79,1364.29 2133.39,1381.1C2140.98,1397.91 2151.01,1412.42 2163.49,1424.62C2175.96,1436.83 2190.33,1446.45 2206.6,1453.5C2222.87,1460.55 2240.5,1464.08 2259.48,1464.08C2288.22,1464.08 2313.03,1457.43 2333.91,1444.15C2354.79,1430.86 2370.66,1415.54 2381.5,1398.18L2422.99,1432.35C2400.21,1461.1 2375.13,1481.7 2347.74,1494.18C2320.36,1506.65 2290.93,1512.89 2259.48,1512.89C2231.28,1512.89 2205.11,1507.87 2180.97,1497.84C2156.84,1487.81 2136.1,1473.84 2118.74,1455.94C2101.39,1438.05 2087.69,1416.89 2077.66,1392.49C2067.63,1368.08 2062.61,1341.51 2062.61,1312.77C2062.61,1284.02 2067.49,1257.45 2077.25,1233.04C2087.01,1208.64 2100.57,1187.49 2117.93,1169.59C2135.28,1151.69 2155.62,1137.73 2178.94,1127.69C2202.26,1117.66 2227.48,1112.64 2254.6,1112.64C2283.34,1112.64 2309.1,1117.8 2331.88,1128.1C2354.66,1138.41 2373.78,1152.1 2389.23,1169.18C2404.69,1186.27 2416.48,1206.33 2424.62,1229.38C2432.75,1252.43 2436.82,1276.97 2436.82,1303L2436.82,1327.41L2119.56,1327.41Z" style="fill-rule:nonzero;"/>
    </g>
    <g transform="matrix(0.195481,0,0,0.195481,1645.03,1044.55)">
        <path d="M595.867,1212.71C587.732,1196.98 576.885,1184.5 563.327,1175.28C549.768,1166.07 533.227,1161.45 513.703,1161.45C504.483,1161.45 495.128,1162.54 485.637,1164.71C476.146,1166.88 467.605,1170.27 460.012,1174.88C452.419,1179.49 446.318,1185.32 441.708,1192.37C437.098,1199.42 434.793,1208.1 434.793,1218.4C434.793,1236.3 441.03,1249.31 453.504,1257.45C465.978,1265.58 484.688,1272.63 509.635,1278.6L564.14,1291.62C590.714,1297.58 612.815,1309.65 630.44,1327.82C648.066,1345.98 656.879,1368.63 656.879,1395.74C656.879,1416.35 652.676,1434.11 644.27,1449.03C635.864,1463.94 624.746,1476.14 610.916,1485.63C597.087,1495.13 581.224,1502.04 563.327,1506.38C545.43,1510.72 527.261,1512.89 508.822,1512.89C479.536,1512.89 452.284,1507.33 427.065,1496.21C401.846,1485.09 380.289,1465.98 362.392,1438.86L408.761,1407.13C419.608,1424.49 433.302,1438.32 449.843,1448.62C466.384,1458.92 486.044,1464.08 508.822,1464.08C519.669,1464.08 530.515,1462.86 541.362,1460.42C552.209,1457.98 561.835,1454.18 570.241,1449.03C578.648,1443.88 585.427,1437.23 590.579,1429.1C595.731,1420.96 598.307,1411.47 598.307,1400.62C598.307,1381.64 591.257,1367.95 577.156,1359.54C563.055,1351.14 545.972,1344.49 525.906,1339.61L473.841,1327.41C467.333,1325.78 458.52,1323.07 447.403,1319.27C436.285,1315.48 425.438,1309.78 414.863,1302.19C404.287,1294.6 395.203,1284.7 387.61,1272.5C380.018,1260.3 376.221,1245.25 376.221,1227.35C376.221,1207.82 380.153,1190.74 388.017,1176.1C395.881,1161.45 406.456,1149.52 419.744,1140.3C433.031,1131.08 448.081,1124.17 464.893,1119.56C481.705,1114.95 499.06,1112.64 516.957,1112.64C543.531,1112.64 568.208,1117.8 590.986,1128.1C613.764,1138.41 631.39,1156.03 643.863,1180.98L595.867,1212.71Z" style="fill-rule:nonzero;"/>
        <path d="M957.061,1313.58C943.503,1313.58 926.555,1314.26 906.218,1315.61C885.88,1316.97 866.356,1320.22 847.645,1325.38C828.935,1330.53 812.936,1338.53 799.649,1349.37C786.362,1360.22 779.718,1375.13 779.718,1394.12C779.718,1406.59 782.294,1417.3 787.446,1426.25C792.599,1435.2 799.513,1442.52 808.191,1448.21C816.868,1453.91 826.494,1457.98 837.07,1460.42C847.645,1462.86 858.357,1464.08 869.203,1464.08C888.727,1464.08 905.675,1460.82 920.047,1454.32C934.419,1447.81 946.486,1439 956.248,1427.88C966.01,1416.76 973.196,1403.74 977.806,1388.83C982.416,1373.91 984.721,1358.05 984.721,1341.24L984.721,1313.58L957.061,1313.58ZM984.721,1269.65L984.721,1259.89C984.721,1194.27 952.18,1161.45 887.1,1161.45C842.629,1161.45 803.852,1176.37 770.77,1206.2L738.229,1167.96C774.024,1131.08 827.715,1112.64 899.303,1112.64C917.742,1112.64 935.504,1115.36 952.587,1120.78C969.671,1126.2 984.449,1134.47 996.923,1145.59C1009.4,1156.71 1019.43,1170.67 1027.02,1187.49C1034.62,1204.3 1038.41,1224.37 1038.41,1247.69L1038.41,1417.71C1038.41,1432.35 1039.09,1447.67 1040.44,1463.67C1041.8,1479.67 1043.29,1492.82 1044.92,1503.13L992.856,1503.13C991.229,1493.91 990.008,1483.87 989.195,1473.03C988.381,1462.18 987.975,1451.6 987.975,1441.3L986.348,1441.3C970.62,1466.79 952.045,1485.09 930.623,1496.21C909.2,1507.33 883.033,1512.89 852.12,1512.89C835.307,1512.89 819.037,1510.58 803.31,1505.97C787.582,1501.36 773.617,1494.31 761.414,1484.82C749.212,1475.33 739.45,1463.67 732.128,1449.84C724.807,1436.01 721.146,1419.88 721.146,1401.44C721.146,1370.53 729.145,1346.26 745.144,1328.63C761.143,1311 781.209,1297.85 805.343,1289.17C829.477,1280.5 855.238,1275.07 882.626,1272.9C910.014,1270.74 935.097,1269.65 957.875,1269.65L984.721,1269.65Z" style="fill-rule:nonzero;"/>
        <rect x="1175.08" y="888.118" width="53.691" height="615.007" style="fill-rule:nonzero;"/>
        <path d="M1525.7,1503.13L1465.5,1503.13L1310.93,1122.41L1375.2,1122.41L1496.41,1442.93L1498.04,1442.93L1619.25,1122.41L1680.27,1122.41L1525.7,1503.13Z" style="fill-rule:nonzero;"/>
        <path d="M1828.32,975.976C1828.32,987.366 1824.25,996.721 1816.12,1004.04C1807.98,1011.36 1799.04,1015.02 1789.27,1015.02C1779.51,1015.02 1770.56,1011.36 1762.43,1004.04C1754.29,996.721 1750.23,987.366 1750.23,975.976C1750.23,964.587 1754.29,955.232 1762.43,947.911C1770.56,940.589 1779.51,936.928 1789.27,936.928C1799.04,936.928 1807.98,940.589 1816.12,947.911C1824.25,955.232 1828.32,964.587 1828.32,975.976ZM1816.12,1503.13L1762.43,1503.13L1762.43,1122.41L1816.12,1122.41L1816.12,1503.13Z" style="fill-rule:nonzero;"/>
        <path d="M1996.72,1122.41C1997.8,1132.71 1998.48,1142.88 1998.75,1152.91C1999.02,1162.95 1999.16,1173.12 1999.16,1183.42L2000.78,1183.42C2006.75,1173.12 2014.34,1163.62 2023.56,1154.95C2032.78,1146.27 2043.09,1138.81 2054.47,1132.58C2065.86,1126.34 2077.93,1121.46 2090.68,1117.93C2103.42,1114.41 2116.03,1112.64 2128.5,1112.64C2177.31,1112.64 2213.38,1125.53 2236.7,1151.29C2260.02,1177.05 2271.68,1213.79 2271.68,1261.52L2271.68,1503.13L2217.99,1503.13L2217.99,1292.43C2217.99,1250.13 2210.67,1217.72 2196.03,1195.21C2181.38,1172.71 2154.26,1161.45 2114.68,1161.45C2111.96,1161.45 2104.37,1162.54 2091.9,1164.71C2079.42,1166.88 2066.27,1172.84 2052.44,1182.61C2038.61,1192.37 2026.27,1207.01 2015.43,1226.54C2004.58,1246.06 1999.16,1273.18 1999.16,1307.88L1999.16,1503.13L1945.47,1503.13L1945.47,1206.2C1945.47,1195.89 1945.06,1182.88 1944.25,1167.15C1943.43,1151.42 1942.48,1136.51 1941.4,1122.41L1996.72,1122.41Z" style="fill-rule:nonzero;"/>
        <path d="M2475.87,975.976C2475.87,987.366 2471.8,996.721 2463.67,1004.04C2455.53,1011.36 2446.58,1015.02 2436.82,1015.02C2427.06,1015.02 2418.11,1011.36 2409.98,1004.04C2401.84,996.721 2397.77,987.366 2397.77,975.976C2397.77,964.587 2401.84,955.232 2409.98,947.911C2418.11,940.589 2427.06,936.928 2436.82,936.928C2446.58,936.928 2455.53,940.589 2463.67,947.911C2471.8,955.232 2475.87,964.587 2475.87,975.976ZM2463.67,1503.13L2409.98,1503.13L2409.98,1122.41L2463.67,1122.41L2463.67,1503.13Z" style="fill-rule:nonzero;"/>
    </g>
    <g transform="matrix(0.548474,0,0,0.409654,-272.212,2624.48)">
        <path d="M1926.1,1291.76C1926.1,1267.18 1911.19,1247.23 1892.84,1247.23L684.88,1247.23C666.526,1247.23 651.624,1267.18 651.624,1291.76L651.624,1539.4C651.624,1563.98 666.526,1583.93 684.88,1583.93L1892.84,1583.93C1911.19,1583.93 1926.1,1563.98 1926.1,1539.4L1926.1,1291.76Z" style="fill:white;stroke:rgb(35,35,35);stroke-width:8.61px;"/>
    </g>
    <g transform="matrix(0.160718,0,0,0.160718,72.2247,2947.13)">
        <path d="M599.441,1705.59L600.48,1705.59L720.037,1385.91L760.063,1385.91L619.193,1753.94L579.688,1753.94L439.338,1385.91L479.883,1385.91L599.441,1705.59Z" style="fill:rgb(26,26,26);fill-rule:nonzero;"/>
        <path d="M934.721,1596.95C934.721,1575.81 929.176,1560.05 918.087,1549.65C906.997,1539.25 890.883,1534.06 869.744,1534.06C855.189,1534.06 841.674,1536.65 829.198,1541.85C816.723,1547.05 806.153,1553.98 797.49,1562.64L777.737,1539.25C787.786,1529.2 801.042,1520.89 817.503,1514.3C833.963,1507.72 852.59,1504.43 873.383,1504.43C886.551,1504.43 898.853,1506.25 910.289,1509.88C921.725,1513.52 931.775,1518.98 940.439,1526.26C949.102,1533.54 955.86,1542.72 960.711,1553.81C965.563,1564.9 967.989,1577.89 967.989,1592.8L967.989,1699.36C967.989,1708.71 968.335,1718.42 969.028,1728.47C969.721,1738.52 970.761,1747.01 972.147,1753.94L940.439,1753.94C939.399,1748.05 938.533,1741.63 937.839,1734.7C937.146,1727.77 936.8,1721.02 936.8,1714.43L935.76,1714.43C924.671,1730.72 912.109,1742.41 898.074,1749.52C884.039,1756.62 867.145,1760.17 847.392,1760.17C838.035,1760.17 828.419,1758.88 818.542,1756.28C808.666,1753.68 799.656,1749.43 791.512,1743.54C783.368,1737.65 776.61,1730.03 771.239,1720.67C765.868,1711.31 763.182,1699.88 763.182,1686.36C763.182,1667.65 767.947,1652.83 777.477,1641.92C787.007,1631 799.742,1622.86 815.683,1617.49C831.624,1612.11 849.904,1608.65 870.524,1607.09C891.143,1605.53 912.542,1604.75 934.721,1604.75L934.721,1596.95ZM924.324,1632.3C909.77,1632.3 895.128,1632.91 880.4,1634.12C865.672,1635.33 852.33,1637.76 840.374,1641.4C828.419,1645.04 818.629,1650.32 811.005,1657.25C803.381,1664.18 799.569,1673.37 799.569,1684.8C799.569,1693.47 801.215,1700.74 804.507,1706.63C807.799,1712.53 812.218,1717.29 817.762,1720.93C823.307,1724.57 829.458,1727.17 836.216,1728.73C842.973,1730.29 849.818,1731.07 856.748,1731.07C869.224,1731.07 880.313,1728.9 890.017,1724.57C899.72,1720.24 907.864,1714.35 914.448,1706.89C921.032,1699.44 926.057,1690.87 929.522,1681.16C932.988,1671.46 934.721,1661.24 934.721,1650.49L934.721,1632.3L924.324,1632.3Z" style="fill:rgb(26,26,26);fill-rule:nonzero;"/>
        <path d="M1085.47,1510.66C1086.16,1517.25 1086.68,1524.53 1087.03,1532.5C1087.37,1540.47 1087.55,1547.05 1087.55,1552.25L1088.59,1552.25C1095.52,1538.04 1106.78,1526.52 1122.37,1517.68C1137.97,1508.85 1154.43,1504.43 1171.76,1504.43C1202.6,1504.43 1225.73,1513.61 1241.15,1531.98C1256.57,1550.34 1264.28,1574.6 1264.28,1604.75L1264.28,1753.94L1228.93,1753.94L1228.93,1619.31C1228.93,1606.48 1227.9,1594.87 1225.82,1584.48C1223.74,1574.08 1220.18,1565.16 1215.16,1557.71C1210.13,1550.26 1203.38,1544.45 1194.89,1540.29C1186.4,1536.13 1175.74,1534.06 1162.92,1534.06C1153.56,1534.06 1144.47,1535.96 1135.63,1539.77C1126.79,1543.59 1118.91,1549.39 1111.98,1557.19C1105.05,1564.99 1099.5,1574.86 1095.34,1586.82C1091.18,1598.77 1089.11,1612.89 1089.11,1629.18L1089.11,1753.94L1053.76,1753.94L1053.76,1564.2C1053.76,1557.62 1053.59,1549.13 1053.24,1538.73C1052.89,1528.34 1052.37,1518.98 1051.68,1510.66L1085.47,1510.66Z" style="fill:rgb(26,26,26);fill-rule:nonzero;"/>
        <path d="M1503.92,1596.95C1503.92,1575.81 1498.37,1560.05 1487.28,1549.65C1476.19,1539.25 1460.08,1534.06 1438.94,1534.06C1424.38,1534.06 1410.87,1536.65 1398.39,1541.85C1385.92,1547.05 1375.35,1553.98 1366.69,1562.64L1346.93,1539.25C1356.98,1529.2 1370.24,1520.89 1386.7,1514.3C1403.16,1507.72 1421.79,1504.43 1442.58,1504.43C1455.75,1504.43 1468.05,1506.25 1479.49,1509.88C1490.92,1513.52 1500.97,1518.98 1509.63,1526.26C1518.3,1533.54 1525.06,1542.72 1529.91,1553.81C1534.76,1564.9 1537.18,1577.89 1537.18,1592.8L1537.18,1699.36C1537.18,1708.71 1537.53,1718.42 1538.23,1728.47C1538.92,1738.52 1539.96,1747.01 1541.34,1753.94L1509.63,1753.94C1508.6,1748.05 1507.73,1741.63 1507.04,1734.7C1506.34,1727.77 1506,1721.02 1506,1714.43L1504.96,1714.43C1493.87,1730.72 1481.31,1742.41 1467.27,1749.52C1453.24,1756.62 1436.34,1760.17 1416.59,1760.17C1407.23,1760.17 1397.62,1758.88 1387.74,1756.28C1377.86,1753.68 1368.85,1749.43 1360.71,1743.54C1352.56,1737.65 1345.81,1730.03 1340.43,1720.67C1335.06,1711.31 1332.38,1699.88 1332.38,1686.36C1332.38,1667.65 1337.14,1652.83 1346.67,1641.92C1356.2,1631 1368.94,1622.86 1384.88,1617.49C1400.82,1612.11 1419.1,1608.65 1439.72,1607.09C1460.34,1605.53 1481.74,1604.75 1503.92,1604.75L1503.92,1596.95ZM1493.52,1632.3C1478.97,1632.3 1464.32,1632.91 1449.6,1634.12C1434.87,1635.33 1421.53,1637.76 1409.57,1641.4C1397.62,1645.04 1387.83,1650.32 1380.2,1657.25C1372.58,1664.18 1368.77,1673.37 1368.77,1684.8C1368.77,1693.47 1370.41,1700.74 1373.7,1706.63C1377,1712.53 1381.41,1717.29 1386.96,1720.93C1392.5,1724.57 1398.65,1727.17 1405.41,1728.73C1412.17,1730.29 1419.01,1731.07 1425.94,1731.07C1438.42,1731.07 1449.51,1728.9 1459.21,1724.57C1468.92,1720.24 1477.06,1714.35 1483.64,1706.89C1490.23,1699.44 1495.25,1690.87 1498.72,1681.16C1502.18,1671.46 1503.92,1661.24 1503.92,1650.49L1503.92,1632.3L1493.52,1632.3Z" style="fill:rgb(26,26,26);fill-rule:nonzero;"/>
        <path d="M1823.08,1712.87C1812.69,1728.47 1799.17,1740.25 1782.54,1748.22C1765.9,1756.19 1748.75,1760.17 1731.08,1760.17C1712.02,1760.17 1694.78,1756.88 1679.35,1750.3C1663.93,1743.71 1650.76,1734.7 1639.85,1723.27C1628.93,1711.83 1620.44,1698.32 1614.38,1682.72C1608.31,1667.13 1605.28,1650.32 1605.28,1632.3C1605.28,1614.28 1608.31,1597.47 1614.38,1581.88C1620.44,1566.28 1628.93,1552.77 1639.85,1541.33C1650.76,1529.9 1663.93,1520.89 1679.35,1514.3C1694.78,1507.72 1712.02,1504.43 1731.08,1504.43C1748.75,1504.43 1765.9,1508.5 1782.54,1516.64C1799.17,1524.79 1812.69,1536.83 1823.08,1552.77L1824.12,1552.77L1824.12,1360.96L1859.47,1360.96L1859.47,1753.94L1824.12,1753.94L1824.12,1712.87L1823.08,1712.87ZM1642.71,1632.3C1642.71,1645.82 1644.79,1658.55 1648.94,1670.51C1653.1,1682.46 1659.08,1692.86 1666.88,1701.7C1674.68,1710.53 1684.29,1717.46 1695.73,1722.49C1707.16,1727.51 1720.16,1730.03 1734.71,1730.03C1748.23,1730.03 1760.7,1727.51 1772.14,1722.49C1783.58,1717.46 1793.45,1710.62 1801.77,1701.96C1810.09,1693.29 1816.59,1682.98 1821.26,1671.03C1825.94,1659.07 1828.28,1646.16 1828.28,1632.3C1828.28,1618.44 1825.94,1605.53 1821.26,1593.57C1816.59,1581.62 1810.09,1571.22 1801.77,1562.39C1793.45,1553.55 1783.58,1546.62 1772.14,1541.59C1760.7,1536.57 1748.23,1534.06 1734.71,1534.06C1720.16,1534.06 1707.16,1536.65 1695.73,1541.85C1684.29,1547.05 1674.68,1554.07 1666.88,1562.9C1659.08,1571.74 1653.1,1582.14 1648.94,1594.09C1644.79,1606.05 1642.71,1618.79 1642.71,1632.3Z" style="fill:rgb(26,26,26);fill-rule:nonzero;"/>
        <path d="M1984.75,1753.94L1949.4,1753.94L1949.4,1510.66L1984.75,1510.66L1984.75,1753.94ZM1992.02,1417.1C1992.02,1424.38 1989.42,1430.35 1984.23,1435.03C1979.03,1439.71 1973.31,1442.05 1967.07,1442.05C1960.83,1442.05 1955.12,1439.71 1949.92,1435.03C1944.72,1430.35 1942.12,1424.38 1942.12,1417.1C1942.12,1409.82 1944.72,1403.84 1949.92,1399.16C1955.12,1394.49 1960.83,1392.15 1967.07,1392.15C1973.31,1392.15 1979.03,1394.49 1984.23,1399.16C1989.42,1403.84 1992.02,1409.82 1992.02,1417.1Z" style="fill:rgb(26,26,26);fill-rule:nonzero;"/>
        <path d="M2250.37,1753.94C2249.68,1747.35 2249.16,1740.08 2248.81,1732.11C2248.46,1724.13 2248.29,1717.55 2248.29,1712.35L2247.25,1712.35C2240.32,1726.56 2229.06,1738.08 2213.46,1746.92C2197.87,1755.76 2181.41,1760.17 2164.08,1760.17C2133.24,1760.17 2110.11,1750.99 2094.69,1732.62C2079.26,1714.26 2071.55,1690 2071.55,1659.85L2071.55,1510.66L2106.9,1510.66L2106.9,1645.3C2106.9,1658.12 2107.94,1669.73 2110.02,1680.12C2112.1,1690.52 2115.65,1699.44 2120.68,1706.89C2125.7,1714.35 2132.46,1720.15 2140.95,1724.31C2149.44,1728.47 2160.1,1730.55 2172.92,1730.55C2182.27,1730.55 2191.37,1728.64 2200.21,1724.83C2209.05,1721.02 2216.93,1715.21 2223.86,1707.41C2230.79,1699.62 2236.34,1689.74 2240.49,1677.78C2244.65,1665.83 2246.73,1651.71 2246.73,1635.42L2246.73,1510.66L2282.08,1510.66L2282.08,1700.4C2282.08,1706.98 2282.25,1715.47 2282.6,1725.87C2282.95,1736.26 2283.47,1745.62 2284.16,1753.94L2250.37,1753.94Z" style="fill:rgb(26,26,26);fill-rule:nonzero;"/>
        <path d="M2405.28,1552.25C2412.2,1538.04 2422.86,1526.52 2437.24,1517.68C2451.62,1508.85 2467.65,1504.43 2485.33,1504.43C2491.91,1504.43 2498.75,1505.12 2505.86,1506.51C2512.96,1507.89 2519.89,1510.58 2526.65,1514.56C2533.41,1518.55 2539.65,1523.83 2545.36,1530.42C2551.08,1537 2556.02,1545.49 2560.18,1555.89C2568.5,1539.25 2579.85,1526.52 2594.23,1517.68C2608.61,1508.85 2625.68,1504.43 2645.43,1504.43C2676.27,1504.43 2699.4,1513.61 2714.82,1531.98C2730.24,1550.34 2737.96,1574.6 2737.96,1604.75L2737.96,1753.94L2702.61,1753.94L2702.61,1619.31C2702.61,1593.66 2697.84,1573.04 2688.31,1557.45C2678.78,1541.85 2662.58,1534.06 2639.71,1534.06C2626.89,1534.06 2616.06,1536.65 2607.22,1541.85C2598.39,1547.05 2591.28,1553.89 2585.91,1562.39C2580.54,1570.88 2576.64,1580.49 2574.21,1591.24C2571.79,1601.98 2570.58,1613.07 2570.58,1624.5L2570.58,1753.94L2535.23,1753.94L2535.23,1612.03C2535.23,1600.25 2534.36,1589.5 2532.63,1579.8C2530.9,1570.1 2527.86,1561.87 2523.53,1555.11C2519.2,1548.35 2513.22,1543.15 2505.6,1539.51C2497.97,1535.88 2488.27,1534.06 2476.49,1534.06C2468.17,1534.06 2459.77,1535.96 2451.28,1539.77C2442.79,1543.59 2435.16,1549.39 2428.41,1557.19C2421.65,1564.99 2416.19,1574.86 2412.03,1586.82C2407.87,1598.77 2405.79,1612.89 2405.79,1629.18L2405.79,1753.94L2370.45,1753.94L2370.45,1564.2C2370.45,1557.62 2370.27,1549.13 2369.93,1538.73C2369.58,1528.34 2369.06,1518.98 2368.37,1510.66L2402.16,1510.66C2402.85,1517.25 2403.37,1524.53 2403.72,1532.5C2404.06,1540.47 2404.24,1547.05 2404.24,1552.25L2405.28,1552.25Z" style="fill:rgb(26,26,26);fill-rule:nonzero;"/>
        <path d="M2951.08,1385.91L3055.04,1385.91C3073.76,1385.91 3090.74,1387.9 3105.98,1391.89C3121.23,1395.87 3134.31,1401.94 3145.23,1410.08C3156.15,1418.22 3164.55,1428.45 3170.44,1440.75C3176.33,1453.05 3179.28,1467.52 3179.28,1484.15C3179.28,1500.79 3176.24,1515.26 3170.18,1527.56C3164.12,1539.86 3155.63,1550.08 3144.71,1558.23C3133.79,1566.37 3120.62,1572.52 3105.2,1576.68C3089.78,1580.84 3072.72,1582.92 3054,1582.92L2988.51,1582.92L2988.51,1753.94L2951.08,1753.94L2951.08,1385.91ZM2988.51,1551.21L3051.92,1551.21C3081.38,1551.21 3103.73,1545.49 3118.98,1534.06C3134.23,1522.62 3141.85,1505.99 3141.85,1484.15C3141.85,1461.28 3133.97,1444.56 3118.2,1433.99C3102.43,1423.42 3080.34,1418.14 3051.92,1418.14L2988.51,1418.14L2988.51,1551.21Z" style="fill:rgb(26,26,26);fill-rule:nonzero;"/>
        <path d="M3220.34,1564.2C3220.34,1557.62 3220.17,1549.13 3219.82,1538.73C3219.48,1528.34 3218.96,1518.98 3218.26,1510.66L3252.05,1510.66C3252.74,1517.25 3253.26,1524.53 3253.61,1532.5C3253.96,1540.47 3254.13,1547.05 3254.13,1552.25L3255.17,1552.25C3262.1,1538.04 3272.5,1526.52 3286.36,1517.68C3300.22,1508.85 3315.82,1504.43 3333.14,1504.43C3337.65,1504.43 3341.72,1504.6 3345.36,1504.95C3349,1505.29 3352.72,1505.99 3356.53,1507.03L3351.86,1540.29C3349.78,1539.6 3346.31,1538.91 3341.46,1538.21C3336.61,1537.52 3331.76,1537.17 3326.91,1537.17C3317.55,1537.17 3308.54,1538.91 3299.87,1542.37C3291.21,1545.84 3283.67,1551.3 3277.26,1558.75C3270.85,1566.2 3265.65,1575.73 3261.67,1587.34C3257.68,1598.95 3255.69,1612.89 3255.69,1629.18L3255.69,1753.94L3220.34,1753.94L3220.34,1564.2Z" style="fill:rgb(26,26,26);fill-rule:nonzero;"/>
        <path d="M3578.49,1613.59C3577.45,1590.72 3570.09,1571.74 3556.4,1556.67C3542.71,1541.59 3523.22,1534.06 3497.92,1534.06C3486.14,1534.06 3475.22,1536.22 3465.18,1540.55C3455.13,1544.88 3446.29,1550.78 3438.66,1558.23C3431.04,1565.68 3424.98,1574.17 3420.47,1583.7C3415.97,1593.23 3413.37,1603.19 3412.67,1613.59L3578.49,1613.59ZM3614.36,1625.02C3614.36,1627.45 3614.36,1630.05 3614.36,1632.82C3614.36,1635.59 3614.19,1638.54 3613.84,1641.66L3412.15,1641.66C3412.5,1653.79 3414.93,1665.22 3419.43,1675.97C3423.94,1686.71 3430.18,1696.06 3438.14,1704.04C3446.12,1712.01 3455.47,1718.33 3466.22,1723.01C3476.96,1727.69 3488.57,1730.03 3501.04,1730.03C3519.41,1730.03 3535.26,1725.78 3548.61,1717.29C3561.95,1708.8 3572.08,1699.01 3579.01,1687.92L3605.53,1708.71C3590.97,1727.08 3574.94,1740.25 3557.44,1748.22C3539.94,1756.19 3521.14,1760.17 3501.04,1760.17C3483.02,1760.17 3466.3,1756.97 3450.88,1750.56C3435.46,1744.15 3422.2,1735.22 3411.12,1723.79C3400.03,1712.35 3391.28,1698.84 3384.86,1683.24C3378.45,1667.65 3375.25,1650.67 3375.25,1632.3C3375.25,1613.93 3378.37,1596.95 3384.6,1581.36C3390.84,1565.76 3399.51,1552.25 3410.6,1540.81C3421.68,1529.38 3434.68,1520.45 3449.58,1514.04C3464.48,1507.63 3480.6,1504.43 3497.92,1504.43C3516.98,1504.43 3533.79,1507.63 3548.35,1514.04C3562.9,1520.45 3575.03,1529.12 3584.73,1540.03C3594.44,1550.95 3601.8,1563.68 3606.83,1578.24C3611.85,1592.8 3614.36,1608.39 3614.36,1625.02Z" style="fill:rgb(26,26,26);fill-rule:nonzero;"/>
        <path d="M3814.49,1568.36C3809.29,1558.31 3801.41,1550.08 3790.84,1543.67C3780.27,1537.26 3768.23,1534.06 3754.71,1534.06C3748.47,1534.06 3742.24,1534.75 3736,1536.13C3729.76,1537.52 3724.22,1539.77 3719.36,1542.89C3714.51,1546.01 3710.61,1550 3707.67,1554.85C3704.72,1559.7 3703.25,1565.42 3703.25,1572C3703.25,1583.44 3707.93,1592.19 3717.28,1598.25C3726.64,1604.32 3741.37,1609.43 3761.47,1613.59C3790.23,1619.48 3811.46,1628.06 3825.15,1639.32C3838.84,1650.58 3845.68,1665.74 3845.68,1684.8C3845.68,1698.66 3842.99,1710.36 3837.62,1719.89C3832.25,1729.42 3825.23,1737.22 3816.57,1743.28C3807.91,1749.35 3798.12,1753.68 3787.2,1756.28C3776.28,1758.88 3765.28,1760.17 3754.19,1760.17C3735.83,1760.17 3717.98,1756.36 3700.65,1748.74C3683.32,1741.12 3669.12,1729.16 3658.03,1712.87L3686.1,1692.08C3692.33,1702.82 3701.52,1711.83 3713.65,1719.11C3725.78,1726.39 3739.12,1730.03 3753.67,1730.03C3761.3,1730.03 3768.57,1729.33 3775.5,1727.95C3782.43,1726.56 3788.5,1724.13 3793.7,1720.67C3798.9,1717.2 3803.05,1712.79 3806.17,1707.41C3809.29,1702.04 3810.85,1695.37 3810.85,1687.4C3810.85,1674.58 3804.7,1664.96 3792.4,1658.55C3780.1,1652.14 3762.34,1646.16 3739.12,1640.62C3731.84,1638.88 3724.13,1636.72 3715.99,1634.12C3707.84,1631.52 3700.31,1627.71 3693.37,1622.68C3686.44,1617.66 3680.72,1611.34 3676.22,1603.71C3671.72,1596.09 3669.46,1586.56 3669.46,1575.12C3669.46,1562.64 3671.89,1551.99 3676.74,1543.15C3681.59,1534.32 3688.09,1527.04 3696.23,1521.32C3704.38,1515.6 3713.65,1511.36 3724.04,1508.59C3734.44,1505.81 3745.18,1504.43 3756.27,1504.43C3773.25,1504.43 3789.71,1508.24 3805.65,1515.86C3821.6,1523.49 3833.55,1534.23 3841.52,1548.09L3814.49,1568.36Z" style="fill:rgb(26,26,26);fill-rule:nonzero;"/>
        <path d="M4040.09,1568.36C4034.89,1558.31 4027.01,1550.08 4016.44,1543.67C4005.87,1537.26 3993.83,1534.06 3980.31,1534.06C3974.07,1534.06 3967.84,1534.75 3961.6,1536.13C3955.36,1537.52 3949.82,1539.77 3944.96,1542.89C3940.11,1546.01 3936.21,1550 3933.27,1554.85C3930.32,1559.7 3928.85,1565.42 3928.85,1572C3928.85,1583.44 3933.53,1592.19 3942.88,1598.25C3952.24,1604.32 3966.97,1609.43 3987.07,1613.59C4015.83,1619.48 4037.06,1628.06 4050.75,1639.32C4064.43,1650.58 4071.28,1665.74 4071.28,1684.8C4071.28,1698.66 4068.59,1710.36 4063.22,1719.89C4057.85,1729.42 4050.83,1737.22 4042.17,1743.28C4033.51,1749.35 4023.72,1753.68 4012.8,1756.28C4001.88,1758.88 3990.88,1760.17 3979.79,1760.17C3961.43,1760.17 3943.58,1756.36 3926.25,1748.74C3908.92,1741.12 3894.72,1729.16 3883.63,1712.87L3911.7,1692.08C3917.93,1702.82 3927.12,1711.83 3939.25,1719.11C3951.38,1726.39 3964.72,1730.03 3979.27,1730.03C3986.89,1730.03 3994.17,1729.33 4001.1,1727.95C4008.03,1726.56 4014.1,1724.13 4019.3,1720.67C4024.49,1717.2 4028.65,1712.79 4031.77,1707.41C4034.89,1702.04 4036.45,1695.37 4036.45,1687.4C4036.45,1674.58 4030.3,1664.96 4018,1658.55C4005.7,1652.14 3987.93,1646.16 3964.72,1640.62C3957.44,1638.88 3949.73,1636.72 3941.59,1634.12C3933.44,1631.52 3925.9,1627.71 3918.97,1622.68C3912.04,1617.66 3906.32,1611.34 3901.82,1603.71C3897.31,1596.09 3895.06,1586.56 3895.06,1575.12C3895.06,1562.64 3897.49,1551.99 3902.34,1543.15C3907.19,1534.32 3913.69,1527.04 3921.83,1521.32C3929.98,1515.6 3939.25,1511.36 3949.64,1508.59C3960.04,1505.81 3970.78,1504.43 3981.87,1504.43C3998.85,1504.43 4015.31,1508.24 4031.25,1515.86C4047.19,1523.49 4059.15,1534.23 4067.12,1548.09L4040.09,1568.36Z" style="fill:rgb(26,26,26);fill-rule:nonzero;"/>
    </g>
    <g transform="matrix(0.364547,0,0,0.381617,-152.361,2831.74)">
        <path d="M1926.1,1291.76C1926.1,1267.18 1905.21,1247.23 1879.49,1247.23L698.235,1247.23C672.51,1247.23 651.624,1267.18 651.624,1291.76L651.624,1539.4C651.624,1563.98 672.51,1583.93 698.235,1583.93L1879.49,1583.93C1905.21,1583.93 1926.1,1563.98 1926.1,1539.4L1926.1,1291.76Z" style="fill:white;stroke:rgb(35,35,35);stroke-width:11.17px;"/>
    </g>
    <g transform="matrix(0.149718,0,0,0.149718,69.9501,3134.18)">
        <rect x="486.641" y="1385.91" width="37.427" height="368.028" style="fill:rgb(26,26,26);fill-rule:nonzero;"/>
        <path d="M646.224,1510.66C646.917,1517.25 647.437,1524.53 647.783,1532.5C648.13,1540.47 648.303,1547.05 648.303,1552.25L649.343,1552.25C656.274,1538.04 667.536,1526.52 683.131,1517.68C698.725,1508.85 715.186,1504.43 732.513,1504.43C763.355,1504.43 786.487,1513.61 801.908,1531.98C817.329,1550.34 825.04,1574.6 825.04,1604.75L825.04,1753.94L789.692,1753.94L789.692,1619.31C789.692,1606.48 788.653,1594.87 786.574,1584.48C784.494,1574.08 780.942,1565.16 775.917,1557.71C770.893,1550.26 764.135,1544.45 755.645,1540.29C747.154,1536.13 736.498,1534.06 723.676,1534.06C714.319,1534.06 705.223,1535.96 696.386,1539.77C687.549,1543.59 679.665,1549.39 672.734,1557.19C665.803,1564.99 660.259,1574.86 656.1,1586.82C651.942,1598.77 649.863,1612.89 649.863,1629.18L649.863,1753.94L614.515,1753.94L614.515,1564.2C614.515,1557.62 614.342,1549.13 613.995,1538.73C613.649,1528.34 613.129,1518.98 612.436,1510.66L646.224,1510.66Z" style="fill:rgb(26,26,26);fill-rule:nonzero;"/>
        <path d="M1021.01,1540.29L952.394,1540.29L952.394,1682.2C952.394,1691.21 953.261,1698.66 954.993,1704.56C956.726,1710.45 959.238,1715.04 962.531,1718.33C965.823,1721.62 969.721,1723.87 974.226,1725.09C978.732,1726.3 983.583,1726.91 988.781,1726.91C993.633,1726.91 998.744,1726.21 1004.12,1724.83C1009.49,1723.44 1014.6,1721.54 1019.45,1719.11L1021.01,1749.78C1014.77,1752.2 1008.27,1754.02 1001.52,1755.24C994.759,1756.45 987.395,1757.06 979.425,1757.06C972.84,1757.06 965.909,1756.19 958.632,1754.46C951.355,1752.72 944.597,1749.43 938.359,1744.58C932.122,1739.73 927.01,1733.14 923.025,1724.83C919.04,1716.51 917.047,1705.59 917.047,1692.08L917.047,1540.29L866.625,1540.29L866.625,1510.66L917.047,1510.66L917.047,1442.05L952.394,1442.05L952.394,1510.66L1021.01,1510.66L1021.01,1540.29Z" style="fill:rgb(26,26,26);fill-rule:nonzero;"/>
        <path d="M1256.49,1613.59C1255.45,1590.72 1248.08,1571.74 1234.39,1556.67C1220.7,1541.59 1201.21,1534.06 1175.91,1534.06C1164.13,1534.06 1153.22,1536.22 1143.17,1540.55C1133.12,1544.88 1124.28,1550.78 1116.66,1558.23C1109.03,1565.68 1102.97,1574.17 1098.46,1583.7C1093.96,1593.23 1091.36,1603.19 1090.66,1613.59L1256.49,1613.59ZM1292.35,1625.02C1292.35,1627.45 1292.35,1630.05 1292.35,1632.82C1292.35,1635.59 1292.18,1638.54 1291.83,1641.66L1090.14,1641.66C1090.49,1653.79 1092.92,1665.22 1097.42,1675.97C1101.93,1686.71 1108.16,1696.06 1116.14,1704.04C1124.11,1712.01 1133.46,1718.33 1144.21,1723.01C1154.95,1727.69 1166.56,1730.03 1179.03,1730.03C1197.4,1730.03 1213.25,1725.78 1226.6,1717.29C1239.94,1708.8 1250.07,1699.01 1257.01,1687.92L1283.52,1708.71C1268.96,1727.08 1252.93,1740.25 1235.43,1748.22C1217.93,1756.19 1199.13,1760.17 1179.03,1760.17C1161.01,1760.17 1144.29,1756.97 1128.87,1750.56C1113.45,1744.15 1100.19,1735.22 1089.11,1723.79C1078.02,1712.35 1069.27,1698.84 1062.86,1683.24C1056.44,1667.65 1053.24,1650.67 1053.24,1632.3C1053.24,1613.93 1056.36,1596.95 1062.6,1581.36C1068.83,1565.76 1077.5,1552.25 1088.59,1540.81C1099.67,1529.38 1112.67,1520.45 1127.57,1514.04C1142.47,1507.63 1158.59,1504.43 1175.91,1504.43C1194.97,1504.43 1211.78,1507.63 1226.34,1514.04C1240.89,1520.45 1253.02,1529.12 1262.72,1540.03C1272.43,1550.95 1279.79,1563.68 1284.82,1578.24C1289.84,1592.8 1292.35,1608.39 1292.35,1625.02Z" style="fill:rgb(26,26,26);fill-rule:nonzero;"/>
        <path d="M1363.05,1564.2C1363.05,1557.62 1362.87,1549.13 1362.53,1538.73C1362.18,1528.34 1361.66,1518.98 1360.97,1510.66L1394.76,1510.66C1395.45,1517.25 1395.97,1524.53 1396.32,1532.5C1396.66,1540.47 1396.84,1547.05 1396.84,1552.25L1397.88,1552.25C1404.81,1538.04 1415.2,1526.52 1429.06,1517.68C1442.92,1508.85 1458.52,1504.43 1475.85,1504.43C1480.35,1504.43 1484.42,1504.6 1488.06,1504.95C1491.7,1505.29 1495.43,1505.99 1499.24,1507.03L1494.56,1540.29C1492.48,1539.6 1489.02,1538.91 1484.16,1538.21C1479.31,1537.52 1474.46,1537.17 1469.61,1537.17C1460.25,1537.17 1451.24,1538.91 1442.58,1542.37C1433.91,1545.84 1426.38,1551.3 1419.97,1558.75C1413.56,1566.2 1408.36,1575.73 1404.37,1587.34C1400.39,1598.95 1398.39,1612.89 1398.39,1629.18L1398.39,1753.94L1363.05,1753.94L1363.05,1564.2Z" style="fill:rgb(26,26,26);fill-rule:nonzero;"/>
        <path d="M1692.09,1596.95C1692.09,1575.81 1686.55,1560.05 1675.46,1549.65C1664.37,1539.25 1648.25,1534.06 1627.11,1534.06C1612.56,1534.06 1599.04,1536.65 1586.57,1541.85C1574.09,1547.05 1563.52,1553.98 1554.86,1562.64L1535.11,1539.25C1545.16,1529.2 1558.41,1520.89 1574.87,1514.3C1591.33,1507.72 1609.96,1504.43 1630.75,1504.43C1643.92,1504.43 1656.22,1506.25 1667.66,1509.88C1679.09,1513.52 1689.14,1518.98 1697.81,1526.26C1706.47,1533.54 1713.23,1542.72 1718.08,1553.81C1722.93,1564.9 1725.36,1577.89 1725.36,1592.8L1725.36,1699.36C1725.36,1708.71 1725.7,1718.42 1726.4,1728.47C1727.09,1738.52 1728.13,1747.01 1729.52,1753.94L1697.81,1753.94C1696.77,1748.05 1695.9,1741.63 1695.21,1734.7C1694.52,1727.77 1694.17,1721.02 1694.17,1714.43L1693.13,1714.43C1682.04,1730.72 1669.48,1742.41 1655.44,1749.52C1641.41,1756.62 1624.51,1760.17 1604.76,1760.17C1595.4,1760.17 1585.79,1758.88 1575.91,1756.28C1566.04,1753.68 1557.03,1749.43 1548.88,1743.54C1540.74,1737.65 1533.98,1730.03 1528.61,1720.67C1523.24,1711.31 1520.55,1699.88 1520.55,1686.36C1520.55,1667.65 1525.32,1652.83 1534.85,1641.92C1544.38,1631 1557.11,1622.86 1573.05,1617.49C1588.99,1612.11 1607.27,1608.65 1627.89,1607.09C1648.51,1605.53 1669.91,1604.75 1692.09,1604.75L1692.09,1596.95ZM1681.69,1632.3C1667.14,1632.3 1652.5,1632.91 1637.77,1634.12C1623.04,1635.33 1609.7,1637.76 1597.74,1641.4C1585.79,1645.04 1576,1650.32 1568.37,1657.25C1560.75,1664.18 1556.94,1673.37 1556.94,1684.8C1556.94,1693.47 1558.58,1700.74 1561.88,1706.63C1565.17,1712.53 1569.59,1717.29 1575.13,1720.93C1580.68,1724.57 1586.83,1727.17 1593.59,1728.73C1600.34,1730.29 1607.19,1731.07 1614.12,1731.07C1626.59,1731.07 1637.68,1728.9 1647.39,1724.57C1657.09,1720.24 1665.23,1714.35 1671.82,1706.89C1678.4,1699.44 1683.43,1690.87 1686.89,1681.16C1690.36,1671.46 1692.09,1661.24 1692.09,1650.49L1692.09,1632.3L1681.69,1632.3Z" style="fill:rgb(26,26,26);fill-rule:nonzero;"/>
        <path d="M1986.3,1566.28C1980.41,1556.93 1971.84,1549.22 1960.57,1543.15C1949.31,1537.09 1937.1,1534.06 1923.93,1534.06C1909.72,1534.06 1896.9,1536.57 1885.46,1541.59C1874.03,1546.62 1864.24,1553.55 1856.09,1562.39C1847.95,1571.22 1841.71,1581.62 1837.38,1593.57C1833.05,1605.53 1830.88,1618.44 1830.88,1632.3C1830.88,1646.16 1833.05,1658.98 1837.38,1670.77C1841.71,1682.55 1847.86,1692.86 1855.83,1701.7C1863.8,1710.53 1873.51,1717.46 1884.94,1722.49C1896.38,1727.51 1909.2,1730.03 1923.41,1730.03C1939,1730.03 1952.17,1727.08 1962.91,1721.19C1973.66,1715.3 1982.49,1707.67 1989.42,1698.32L2015.93,1718.07C2005.54,1730.89 1992.8,1741.12 1977.73,1748.74C1962.65,1756.36 1944.55,1760.17 1923.41,1760.17C1903.65,1760.17 1885.81,1756.97 1869.87,1750.56C1853.92,1744.15 1840.32,1735.22 1829.06,1723.79C1817.8,1712.35 1809.05,1698.84 1802.81,1683.24C1796.57,1667.65 1793.45,1650.67 1793.45,1632.3C1793.45,1613.93 1796.57,1596.95 1802.81,1581.36C1809.05,1565.76 1817.8,1552.25 1829.06,1540.81C1840.32,1529.38 1853.92,1520.45 1869.87,1514.04C1885.81,1507.63 1903.65,1504.43 1923.41,1504.43C1939.69,1504.43 1956.24,1507.98 1973.05,1515.08C1989.86,1522.19 2003.46,1532.67 2013.86,1546.53L1986.3,1566.28Z" style="fill:rgb(26,26,26);fill-rule:nonzero;"/>
        <path d="M2175.52,1540.29L2106.9,1540.29L2106.9,1682.2C2106.9,1691.21 2107.77,1698.66 2109.5,1704.56C2111.23,1710.45 2113.74,1715.04 2117.04,1718.33C2120.33,1721.62 2124.23,1723.87 2128.73,1725.09C2133.24,1726.3 2138.09,1726.91 2143.29,1726.91C2148.14,1726.91 2153.25,1726.21 2158.62,1724.83C2163.99,1723.44 2169.11,1721.54 2173.96,1719.11L2175.52,1749.78C2169.28,1752.2 2162.78,1754.02 2156.02,1755.24C2149.27,1756.45 2141.9,1757.06 2133.93,1757.06C2127.35,1757.06 2120.42,1756.19 2113.14,1754.46C2105.86,1752.72 2099.1,1749.43 2092.87,1744.58C2086.63,1739.73 2081.52,1733.14 2077.53,1724.83C2073.55,1716.51 2071.55,1705.59 2071.55,1692.08L2071.55,1540.29L2021.13,1540.29L2021.13,1510.66L2071.55,1510.66L2071.55,1442.05L2106.9,1442.05L2106.9,1510.66L2175.52,1510.66L2175.52,1540.29Z" style="fill:rgb(26,26,26);fill-rule:nonzero;"/>
        <path d="M2261.29,1753.94L2225.94,1753.94L2225.94,1510.66L2261.29,1510.66L2261.29,1753.94ZM2268.56,1417.1C2268.56,1424.38 2265.96,1430.35 2260.77,1435.03C2255.57,1439.71 2249.85,1442.05 2243.61,1442.05C2237.38,1442.05 2231.66,1439.71 2226.46,1435.03C2221.26,1430.35 2218.66,1424.38 2218.66,1417.1C2218.66,1409.82 2221.26,1403.84 2226.46,1399.16C2231.66,1394.49 2237.38,1392.15 2243.61,1392.15C2249.85,1392.15 2255.57,1394.49 2260.77,1399.16C2265.96,1403.84 2268.56,1409.82 2268.56,1417.1Z" style="fill:rgb(26,26,26);fill-rule:nonzero;"/>
        <path d="M2449.98,1753.94L2410.99,1753.94L2311.71,1510.66L2351.21,1510.66L2430.23,1716.51L2431.26,1716.51L2510.8,1510.66L2548.74,1510.66L2449.98,1753.94Z" style="fill:rgb(26,26,26);fill-rule:nonzero;"/>
        <path d="M2784.22,1613.59C2783.18,1590.72 2775.82,1571.74 2762.13,1556.67C2748.44,1541.59 2728.95,1534.06 2703.65,1534.06C2691.87,1534.06 2680.95,1536.22 2670.9,1540.55C2660.85,1544.88 2652.01,1550.78 2644.39,1558.23C2636.76,1565.68 2630.7,1574.17 2626.2,1583.7C2621.69,1593.23 2619.09,1603.19 2618.4,1613.59L2784.22,1613.59ZM2820.09,1625.02C2820.09,1627.45 2820.09,1630.05 2820.09,1632.82C2820.09,1635.59 2819.91,1638.54 2819.57,1641.66L2617.88,1641.66C2618.22,1653.79 2620.65,1665.22 2625.16,1675.97C2629.66,1686.71 2635.9,1696.06 2643.87,1704.04C2651.84,1712.01 2661.2,1718.33 2671.94,1723.01C2682.68,1727.69 2694.29,1730.03 2706.77,1730.03C2725.13,1730.03 2740.99,1725.78 2754.33,1717.29C2767.67,1708.8 2777.81,1699.01 2784.74,1687.92L2811.25,1708.71C2796.7,1727.08 2780.67,1740.25 2763.17,1748.22C2745.67,1756.19 2726.87,1760.17 2706.77,1760.17C2688.75,1760.17 2672.03,1756.97 2656.61,1750.56C2641.18,1744.15 2627.93,1735.22 2616.84,1723.79C2605.75,1712.35 2597,1698.84 2590.59,1683.24C2584.18,1667.65 2580.97,1650.67 2580.97,1632.3C2580.97,1613.93 2584.09,1596.95 2590.33,1581.36C2596.57,1565.76 2605.23,1552.25 2616.32,1540.81C2627.41,1529.38 2640.4,1520.45 2655.3,1514.04C2670.21,1507.63 2686.32,1504.43 2703.65,1504.43C2722.71,1504.43 2739.51,1507.63 2754.07,1514.04C2768.62,1520.45 2780.75,1529.12 2790.46,1540.03C2800.16,1550.95 2807.52,1563.68 2812.55,1578.24C2817.57,1592.8 2820.09,1608.39 2820.09,1625.02Z" style="fill:rgb(26,26,26);fill-rule:nonzero;"/>
    </g>
</svg>
